<svg xmlns="http://www.w3.org/2000/svg" width="200" height="70" viewBox="0 0 200 70"><defs><style>.cls-1{fill:#3a5998;}.cls-2{isolation:isolate;}.cls-3{fill:#fff;}</style></defs><g id="social_media"><g id="button.social-2"><rect id="Rectangle_94-2" data-name="Rectangle 94-2" class="cls-1" x="4.5" y="7.63" width="194" height="59.65" rx="5.86"/><g id="Facebook" class="cls-2"><g class="cls-2"><path class="cls-3" d="M66.08,30.42V34.8h5.56V37H66.08v6H63.31V28.22h9.36v2.2Z"/><path class="cls-3" d="M72.89,34a6.28,6.28,0,0,1,4.37-1.66,4.15,4.15,0,0,1,1.65.31,3.54,3.54,0,0,1,1.23.84,3.49,3.49,0,0,1,.76,1.28,4.82,4.82,0,0,1,.27,1.64v6.65H80a1.21,1.21,0,0,1-.56-.11.72.72,0,0,1-.3-.44l-.23-.75q-.41.34-.78.63a4.45,4.45,0,0,1-.79.45,3.62,3.62,0,0,1-.88.28,4.67,4.67,0,0,1-1,.1A4.06,4.06,0,0,1,74.22,43a2.7,2.7,0,0,1-1-.54,2.42,2.42,0,0,1-.64-.89,3.16,3.16,0,0,1-.22-1.24,2.38,2.38,0,0,1,.13-.79,2.35,2.35,0,0,1,.44-.76,3.5,3.5,0,0,1,.78-.67,4.88,4.88,0,0,1,1.19-.56,11,11,0,0,1,1.63-.38A16,16,0,0,1,78.69,37V36.4a2.31,2.31,0,0,0-.45-1.56,1.64,1.64,0,0,0-1.3-.51,3,3,0,0,0-1,.15,3.6,3.6,0,0,0-.71.32l-.56.32a1.09,1.09,0,0,1-.56.15.73.73,0,0,1-.45-.14,1.34,1.34,0,0,1-.3-.33Zm5.8,4.57a12.15,12.15,0,0,0-1.84.19,5,5,0,0,0-1.2.35,1.58,1.58,0,0,0-.65.5,1.09,1.09,0,0,0-.19.63,1.1,1.1,0,0,0,.39,1,1.74,1.74,0,0,0,1,.29,3.13,3.13,0,0,0,1.35-.28,4.06,4.06,0,0,0,1.11-.86Z"/><path class="cls-3" d="M91.08,34.75a1.65,1.65,0,0,1-.22.23.54.54,0,0,1-.31.08.68.68,0,0,1-.38-.12c-.13-.08-.27-.17-.44-.26a3.85,3.85,0,0,0-.61-.27,2.79,2.79,0,0,0-.88-.12,2.66,2.66,0,0,0-1.17.24,2.33,2.33,0,0,0-.84.69,3.26,3.26,0,0,0-.49,1.1,5.77,5.77,0,0,0-.17,1.45,5.58,5.58,0,0,0,.18,1.49,3.17,3.17,0,0,0,.52,1.11,2.29,2.29,0,0,0,.82.67,2.39,2.39,0,0,0,1.09.23,2.69,2.69,0,0,0,1-.15,2.64,2.64,0,0,0,.63-.32l.44-.33a.68.68,0,0,1,.43-.15.51.51,0,0,1,.46.24l.73.92a4.63,4.63,0,0,1-.91.82,5,5,0,0,1-1,.54,6,6,0,0,1-1.09.28,8.41,8.41,0,0,1-1.11.08,4.75,4.75,0,0,1-1.84-.36,4.54,4.54,0,0,1-1.51-1.06,5.18,5.18,0,0,1-1-1.71,6.57,6.57,0,0,1-.37-2.3,6.73,6.73,0,0,1,.33-2.15,4.81,4.81,0,0,1,1-1.71,4.45,4.45,0,0,1,1.6-1.14,5.59,5.59,0,0,1,2.19-.41,5.27,5.27,0,0,1,2.07.38,5.35,5.35,0,0,1,1.6,1.09Z"/><path class="cls-3" d="M95.19,38.11a4.86,4.86,0,0,0,.29,1.39,2.94,2.94,0,0,0,.59,1,2.23,2.23,0,0,0,.88.57,3.1,3.1,0,0,0,1.12.19,3.36,3.36,0,0,0,1.06-.14,4.84,4.84,0,0,0,.78-.32l.59-.32a1,1,0,0,1,.48-.14.53.53,0,0,1,.48.24l.72.92a4,4,0,0,1-.94.82,5.27,5.27,0,0,1-1.09.54,6.76,6.76,0,0,1-1.16.28,9.12,9.12,0,0,1-1.14.08,5.61,5.61,0,0,1-2-.36,4.55,4.55,0,0,1-1.64-1.08A4.84,4.84,0,0,1,93.07,40a6.79,6.79,0,0,1-.4-2.44,5.61,5.61,0,0,1,.35-2,4.6,4.6,0,0,1,1-1.65,4.71,4.71,0,0,1,1.59-1.12,5.26,5.26,0,0,1,2.11-.41,5.19,5.19,0,0,1,1.84.32,3.89,3.89,0,0,1,1.44.93,4.28,4.28,0,0,1,1,1.5,5.52,5.52,0,0,1,.35,2,1.71,1.71,0,0,1-.13.78.51.51,0,0,1-.47.2ZM100,36.58a3.12,3.12,0,0,0-.14-.93,2.14,2.14,0,0,0-.41-.76,1.87,1.87,0,0,0-.71-.52,2.69,2.69,0,0,0-2.71.43,3.11,3.11,0,0,0-.81,1.78Z"/><path class="cls-3" d="M106.72,33.82a5.44,5.44,0,0,1,1.41-1.06,3.91,3.91,0,0,1,1.77-.4,3.7,3.7,0,0,1,1.65.36,3.64,3.64,0,0,1,1.25,1,4.86,4.86,0,0,1,.79,1.63,7.45,7.45,0,0,1,.28,2.14,8.05,8.05,0,0,1-.32,2.33,5.38,5.38,0,0,1-.9,1.79,4.24,4.24,0,0,1-1.42,1.15,4.19,4.19,0,0,1-1.85.41,3.46,3.46,0,0,1-.89-.1,3.14,3.14,0,0,1-1.36-.69,5.73,5.73,0,0,1-.54-.56l-.11.71a.61.61,0,0,1-.21.37.65.65,0,0,1-.41.12h-1.67V27.81h2.53Zm0,6.5a2.56,2.56,0,0,0,.94.74,2.8,2.8,0,0,0,1.07.21,2.61,2.61,0,0,0,1.06-.21,2,2,0,0,0,.79-.65,3.15,3.15,0,0,0,.5-1.14,6.63,6.63,0,0,0,.18-1.66,4.19,4.19,0,0,0-.58-2.5,1.92,1.92,0,0,0-1.65-.78,2.32,2.32,0,0,0-1.27.34,4.23,4.23,0,0,0-1,.93Z"/><path class="cls-3" d="M120.48,32.36a5.81,5.81,0,0,1,2.13.38,4.64,4.64,0,0,1,1.64,1.08,4.53,4.53,0,0,1,1,1.7,7,7,0,0,1,0,4.5,4.65,4.65,0,0,1-1,1.71,4.41,4.41,0,0,1-1.64,1.09,6.19,6.19,0,0,1-4.27,0,4.41,4.41,0,0,1-1.64-1.09A4.8,4.8,0,0,1,115.64,40a7,7,0,0,1,0-4.5,4.64,4.64,0,0,1,2.7-2.78A5.86,5.86,0,0,1,120.48,32.36Zm0,8.89a2.23,2.23,0,0,0,2-.88,4.43,4.43,0,0,0,.63-2.58,4.5,4.5,0,0,0-.63-2.6,2.23,2.23,0,0,0-2-.89,2.27,2.27,0,0,0-2,.9,4.4,4.4,0,0,0-.64,2.59,4.35,4.35,0,0,0,.64,2.58A2.28,2.28,0,0,0,120.48,41.25Z"/><path class="cls-3" d="M132.26,32.36a5.81,5.81,0,0,1,2.13.38A4.64,4.64,0,0,1,136,33.82a4.53,4.53,0,0,1,1.05,1.7,7,7,0,0,1,0,4.5A4.65,4.65,0,0,1,136,41.73a4.41,4.41,0,0,1-1.64,1.09,6.19,6.19,0,0,1-4.27,0,4.41,4.41,0,0,1-1.64-1.09A4.8,4.8,0,0,1,127.42,40a7,7,0,0,1,0-4.5,4.64,4.64,0,0,1,2.7-2.78A5.86,5.86,0,0,1,132.26,32.36Zm0,8.89a2.23,2.23,0,0,0,2-.88,4.43,4.43,0,0,0,.63-2.58,4.5,4.5,0,0,0-.63-2.6,2.23,2.23,0,0,0-2-.89,2.27,2.27,0,0,0-2,.9,4.4,4.4,0,0,0-.64,2.59,4.35,4.35,0,0,0,.64,2.58A2.28,2.28,0,0,0,132.26,41.25Z"/><path class="cls-3" d="M141.92,27.81v8.73h.47a1.08,1.08,0,0,0,.41-.07.73.73,0,0,0,.3-.27L145.72,33a1.39,1.39,0,0,1,.36-.33,1.11,1.11,0,0,1,.52-.11h2.32l-3.28,3.9a2.62,2.62,0,0,1-.75.71,1.85,1.85,0,0,1,.38.36,5,5,0,0,1,.32.44l3.51,5.11h-2.29a1.16,1.16,0,0,1-.51-.1.8.8,0,0,1-.36-.35l-2.68-4a.81.81,0,0,0-.3-.31,1.11,1.11,0,0,0-.46-.07h-.58v4.82h-2.53V27.81Z"/></g></g><path id="facebook-square" class="cls-3" d="M46.57,28.32V44.45a2.2,2.2,0,0,1-2.2,2.2H40.46V38.53h2.78l.4-3.09H40.46v-2c0-.9.25-1.51,1.54-1.51h1.64V29.18c-.8-.08-1.6-.13-2.4-.13a3.74,3.74,0,0,0-4,3.46,3.42,3.42,0,0,0,0,.64v2.29H34.48v3.1h2.78v8.11h-9A2.19,2.19,0,0,1,26,44.46V28.32a2.19,2.19,0,0,1,2.2-2.19H44.37a2.19,2.19,0,0,1,2.2,2.19Z"/></g></g></svg>
