<svg xmlns="http://www.w3.org/2000/svg" width="200" height="70" viewBox="0 0 200 70"><defs><style>.cls-1{fill:#49769c;}.cls-2{isolation:isolate;}.cls-3{fill:#fff;}</style></defs><g id="social_media"><g id="button.social"><rect id="Rectangle_94" data-name="Rectangle 94" class="cls-1" x="2.76" y="6.63" width="195.24" height="58.97" rx="5.83"/><g id="Instagram" class="cls-2"><g class="cls-2"><path class="cls-3" d="M60.58,41.77H57.83V27h2.75Z"/><path class="cls-3" d="M65.68,32.6a5.34,5.34,0,0,1,.67-.59,4,4,0,0,1,2.56-.86,3.65,3.65,0,0,1,1.52.29,2.93,2.93,0,0,1,1.11.81,3.62,3.62,0,0,1,.67,1.26,5.07,5.07,0,0,1,.23,1.6v6.66H69.92V35.11a2.22,2.22,0,0,0-.44-1.48,1.63,1.63,0,0,0-1.33-.53,2.63,2.63,0,0,0-1.23.3,4.49,4.49,0,0,0-1.08.81v7.56H63.32V31.31h1.54a.62.62,0,0,1,.65.46Z"/><path class="cls-3" d="M81.21,33.35a.68.68,0,0,1-.21.23.62.62,0,0,1-.29.07.89.89,0,0,1-.39-.11l-.48-.23a6.48,6.48,0,0,0-.63-.23,3.37,3.37,0,0,0-.83-.1,1.91,1.91,0,0,0-1.17.32,1,1,0,0,0-.42.82.77.77,0,0,0,.22.57,1.85,1.85,0,0,0,.58.4,4.85,4.85,0,0,0,.82.31l.93.31a7.5,7.5,0,0,1,.93.37,3.26,3.26,0,0,1,.83.53,2.48,2.48,0,0,1,.58.77,2.53,2.53,0,0,1,.22,1.08,3.52,3.52,0,0,1-.27,1.39,3,3,0,0,1-.8,1.1,3.9,3.9,0,0,1-1.32.73,5.79,5.79,0,0,1-1.8.26,5.19,5.19,0,0,1-1-.1,5.57,5.57,0,0,1-1-.27,5.48,5.48,0,0,1-.88-.41,3.79,3.79,0,0,1-.71-.51l.59-1a.81.81,0,0,1,.26-.26.75.75,0,0,1,.39-.09.8.8,0,0,1,.44.13c.14.09.3.18.49.28a3.83,3.83,0,0,0,.64.29,2.87,2.87,0,0,0,1,.13,2.52,2.52,0,0,0,.77-.1,2,2,0,0,0,.53-.28,1,1,0,0,0,.3-.41,1.1,1.1,0,0,0,.1-.47.81.81,0,0,0-.22-.6,1.83,1.83,0,0,0-.58-.41,5,5,0,0,0-.83-.31l-1-.3A8.47,8.47,0,0,1,76,36.9a3.16,3.16,0,0,1-.83-.55,2.48,2.48,0,0,1-.58-.83,2.79,2.79,0,0,1-.22-1.18,3,3,0,0,1,.25-1.22,2.87,2.87,0,0,1,.75-1,3.7,3.7,0,0,1,1.24-.69,5,5,0,0,1,1.71-.26,5.34,5.34,0,0,1,2,.35,4.32,4.32,0,0,1,1.48.94Z"/><path class="cls-3" d="M87.28,41.94a2.74,2.74,0,0,1-2.09-.77A3,3,0,0,1,84.46,39V33.2H83.38a.48.48,0,0,1-.48-.53v-1l1.68-.28.53-2.85a.54.54,0,0,1,.19-.32.56.56,0,0,1,.37-.11H87V31.4h2.79v1.8H87v5.67a1.11,1.11,0,0,0,.23.76.83.83,0,0,0,.66.28,1.16,1.16,0,0,0,.4-.06,1.69,1.69,0,0,0,.27-.12l.21-.11a.32.32,0,0,1,.18-.06.29.29,0,0,1,.19.06.66.66,0,0,1,.15.17L90,41a3.51,3.51,0,0,1-1.26.69A4.64,4.64,0,0,1,87.28,41.94Z"/><path class="cls-3" d="M91.14,32.77a6.2,6.2,0,0,1,4.34-1.65,4.24,4.24,0,0,1,1.64.3,3.56,3.56,0,0,1,1.23.83,3.82,3.82,0,0,1,.76,1.28,5,5,0,0,1,.26,1.64v6.6H98.22a1.2,1.2,0,0,1-.55-.1.72.72,0,0,1-.3-.44l-.23-.75a8.22,8.22,0,0,1-.77.63,4.45,4.45,0,0,1-.79.45,4,4,0,0,1-.87.28,4.64,4.64,0,0,1-1,.1,4,4,0,0,1-1.23-.18,2.7,2.7,0,0,1-1-.54,2.36,2.36,0,0,1-.63-.88,3.19,3.19,0,0,1-.22-1.24,2.42,2.42,0,0,1,.13-.79,2.38,2.38,0,0,1,.43-.75,3.5,3.5,0,0,1,.78-.67,5,5,0,0,1,1.18-.55A9.12,9.12,0,0,1,94.79,36a15.85,15.85,0,0,1,2.12-.18v-.61a2.29,2.29,0,0,0-.45-1.56,1.63,1.63,0,0,0-1.29-.51,3,3,0,0,0-1,.15,3.89,3.89,0,0,0-.71.32l-.55.32a1.08,1.08,0,0,1-.56.14.73.73,0,0,1-.45-.13,1.34,1.34,0,0,1-.3-.33Zm5.77,4.54a12.15,12.15,0,0,0-1.84.19,4.59,4.59,0,0,0-1.19.35,1.54,1.54,0,0,0-.64.5,1.21,1.21,0,0,0,.2,1.57,1.69,1.69,0,0,0,1,.28,2.94,2.94,0,0,0,1.34-.28,3.83,3.83,0,0,0,1.11-.85Z"/><path class="cls-3" d="M110.91,31.67v.94c0,.29-.18.48-.54.55l-.94.17a3,3,0,0,1,.22,1.18,3.17,3.17,0,0,1-.31,1.4,3.11,3.11,0,0,1-.87,1.07,4,4,0,0,1-1.3.68,5.27,5.27,0,0,1-1.61.24,5.54,5.54,0,0,1-.59,0l-.57-.08a.8.8,0,0,0-.48.66.48.48,0,0,0,.29.46,2.3,2.3,0,0,0,.77.21,10.65,10.65,0,0,0,1.09.08c.41,0,.82,0,1.25.07a10.33,10.33,0,0,1,1.26.17,3.73,3.73,0,0,1,1.09.41,2.13,2.13,0,0,1,.77.75,2.31,2.31,0,0,1,.29,1.21,2.94,2.94,0,0,1-.34,1.35,3.61,3.61,0,0,1-1,1.16,5.19,5.19,0,0,1-1.59.82,6.8,6.8,0,0,1-2.15.32,8.3,8.3,0,0,1-2.06-.23,4.94,4.94,0,0,1-1.46-.62,2.52,2.52,0,0,1-.87-.88,2.06,2.06,0,0,1-.28-1,1.8,1.8,0,0,1,.44-1.23,3.11,3.11,0,0,1,1.22-.79,1.67,1.67,0,0,1-.66-.57,1.58,1.58,0,0,1-.25-.94,1.45,1.45,0,0,1,.09-.48,2.34,2.34,0,0,1,.25-.5,3.05,3.05,0,0,1,.43-.46,2.59,2.59,0,0,1,.6-.39,3.37,3.37,0,0,1-1.25-1.14,3.34,3.34,0,0,1-.14-3.08,3,3,0,0,1,.86-1.07,4,4,0,0,1,1.32-.68,5.51,5.51,0,0,1,1.66-.23,5.6,5.6,0,0,1,1.26.13,4.33,4.33,0,0,1,1.08.41ZM108.4,42.24a.71.71,0,0,0-.18-.5,1.17,1.17,0,0,0-.5-.3,4.32,4.32,0,0,0-.74-.16l-.9-.07-1-.05c-.33,0-.66,0-1-.08a2.37,2.37,0,0,0-.68.55,1.15,1.15,0,0,0-.26.74,1,1,0,0,0,.14.51,1.1,1.1,0,0,0,.44.41,2.37,2.37,0,0,0,.78.27,5.6,5.6,0,0,0,1.17.1,5.37,5.37,0,0,0,1.21-.11,3.24,3.24,0,0,0,.85-.29,1.31,1.31,0,0,0,.48-.45A1.1,1.1,0,0,0,108.4,42.24Zm-2.84-6a2.46,2.46,0,0,0,.81-.13,1.66,1.66,0,0,0,.58-.35,1.53,1.53,0,0,0,.35-.54,2.19,2.19,0,0,0,.11-.7,1.66,1.66,0,0,0-.46-1.23,2.37,2.37,0,0,0-2.78,0,1.67,1.67,0,0,0-.47,1.23,1.92,1.92,0,0,0,.12.69,1.4,1.4,0,0,0,.35.54,1.47,1.47,0,0,0,.58.36A2.46,2.46,0,0,0,105.56,36.29Z"/><path class="cls-3" d="M114.88,33.13A4.55,4.55,0,0,1,116,31.65a2.46,2.46,0,0,1,1.59-.53,2,2,0,0,1,1.17.31l-.17,1.89a.44.44,0,0,1-.15.26.4.4,0,0,1-.26.08,2.53,2.53,0,0,1-.45-.06,3.92,3.92,0,0,0-.59-.05,2,2,0,0,0-1.33.48,2.8,2.8,0,0,0-.46.55,6.56,6.56,0,0,0-.37.75v6.44H112.5V31.31H114a.81.81,0,0,1,.54.14.83.83,0,0,1,.21.49Z"/><path class="cls-3" d="M119.73,32.77a6.24,6.24,0,0,1,4.35-1.65,4.24,4.24,0,0,1,1.64.3,3.41,3.41,0,0,1,2,2.11,4.78,4.78,0,0,1,.26,1.64v6.6h-1.14a1.17,1.17,0,0,1-.55-.1.72.72,0,0,1-.3-.44l-.23-.75a8.22,8.22,0,0,1-.77.63,4.84,4.84,0,0,1-.79.45,4,4,0,0,1-.87.28,4.67,4.67,0,0,1-1,.1,4,4,0,0,1-1.22-.18,2.7,2.7,0,0,1-1-.54,2.36,2.36,0,0,1-.63-.88,3.19,3.19,0,0,1-.23-1.24,2.44,2.44,0,0,1,.14-.79,2.38,2.38,0,0,1,.43-.75,3.5,3.5,0,0,1,.78-.67,4.8,4.8,0,0,1,1.18-.55,9,9,0,0,1,1.62-.38,16,16,0,0,1,2.13-.18v-.61a2.29,2.29,0,0,0-.45-1.56,1.64,1.64,0,0,0-1.3-.51,2.91,2.91,0,0,0-1,.15,3.6,3.6,0,0,0-.71.32l-.56.32a1,1,0,0,1-.55.14.73.73,0,0,1-.45-.13,1.34,1.34,0,0,1-.3-.33Zm5.78,4.54a12.15,12.15,0,0,0-1.84.19,4.47,4.47,0,0,0-1.19.35,1.58,1.58,0,0,0-.65.5,1.16,1.16,0,0,0-.19.62,1.1,1.1,0,0,0,.39,1,1.74,1.74,0,0,0,1,.28,2.94,2.94,0,0,0,1.34-.28,3.83,3.83,0,0,0,1.11-.85Z"/><path class="cls-3" d="M130.33,41.77V31.31h1.54a.61.61,0,0,1,.64.46l.17.77a6,6,0,0,1,.57-.56,4.12,4.12,0,0,1,.65-.44,4,4,0,0,1,.73-.29,3.33,3.33,0,0,1,.86-.1,2.49,2.49,0,0,1,1.63.53,3.27,3.27,0,0,1,.95,1.42,3.59,3.59,0,0,1,.61-.89,3.27,3.27,0,0,1,.81-.6,3.37,3.37,0,0,1,.93-.35,4.2,4.2,0,0,1,1-.11,4.32,4.32,0,0,1,1.54.26,3,3,0,0,1,1.13.78,3.34,3.34,0,0,1,.7,1.24,5.41,5.41,0,0,1,.24,1.68v6.66h-2.52V35.11a2.26,2.26,0,0,0-.44-1.5,1.59,1.59,0,0,0-1.28-.51,1.89,1.89,0,0,0-.72.14,1.66,1.66,0,0,0-.59.38,2,2,0,0,0-.39.63,2.54,2.54,0,0,0-.14.86v6.66h-2.53V35.11a2.29,2.29,0,0,0-.42-1.53,1.58,1.58,0,0,0-1.24-.48,2.07,2.07,0,0,0-1,.28,3.49,3.49,0,0,0-.88.73v7.66Z"/></g></g><path id="instagram-2" class="cls-3" d="M33.16,29.53a5.15,5.15,0,0,0,0,10.28,5.15,5.15,0,0,0,0-10.28Zm0,8.48a3.35,3.35,0,0,1,0-6.68,3.35,3.35,0,0,1,0,6.68Zm6.19-8.69a1.14,1.14,0,1,1-1.14-1.2,1.17,1.17,0,0,1,1.14,1.2Zm3.21,1.22A6.08,6.08,0,0,0,41,26.34a5.45,5.45,0,0,0-4-1.62c-1.57-.09-6.26-.09-7.82,0a5.5,5.5,0,0,0-4,1.61,6.17,6.17,0,0,0-1.53,4.2c-.09,1.66-.09,6.62,0,8.27A6.13,6.13,0,0,0,25.28,43a5.47,5.47,0,0,0,4,1.62c1.56.09,6.25.09,7.82,0A5.41,5.41,0,0,0,41,43a6.13,6.13,0,0,0,1.53-4.2c.09-1.65.09-6.61,0-8.26Zm-2,10a3.3,3.3,0,0,1-1.8,1.9,19.77,19.77,0,0,1-5.59.4,19.73,19.73,0,0,1-5.58-.4,3.29,3.29,0,0,1-1.81-1.9,23.43,23.43,0,0,1-.37-5.91,23,23,0,0,1,.38-5.91,3.3,3.3,0,0,1,1.8-1.9,19.73,19.73,0,0,1,5.58-.4,19.77,19.77,0,0,1,5.59.4,3.3,3.3,0,0,1,1.8,1.9,23.43,23.43,0,0,1,.38,5.91A23.43,23.43,0,0,1,40.55,40.58Z"/></g></g></svg>
